<?xml version="1.0" encoding="utf-8"?>
<svg viewBox="0 0 500 500" xmlns="http://www.w3.org/2000/svg" xmlns:bx="https://boxy-svg.com">
  <path d="M 218.722 43.23 L 254.332 66.432 L 254.332 112.836 L 218.722 136.038 L 183.112 112.836 L 183.112 66.432 Z" style="fill: rgb(216, 216, 216); stroke: rgb(0, 0, 0);" transform="matrix(0.024755, 0.999694, -1.000075, 0.009348, 324.457346, -122.505451)" bx:shape="n-gon 218.722 89.634 41.119 46.404 6 0 1@4c4f4518"/>
  <path d="M 218.722 43.23 L 254.332 66.432 L 254.332 112.836 L 218.722 136.038 L 183.112 112.836 L 183.112 66.432 Z" style="fill: rgb(216, 216, 216); stroke: rgb(0, 0, 0);" transform="matrix(0.024755, 0.999694, -1.000075, 0.009348, 325.900431, -47.950544)" bx:shape="n-gon 218.722 89.634 41.119 46.404 6 0 1@4c4f4518"/>
  <path d="M 218.722 43.23 L 254.332 66.432 L 254.332 112.836 L 218.722 136.038 L 183.112 112.836 L 183.112 66.432 Z" style="fill: rgb(216, 216, 216); stroke: rgb(0, 0, 0);" transform="matrix(0.024755, 0.999694, -1.000075, 0.009348, 327.700571, 26.306825)" bx:shape="n-gon 218.722 89.634 41.119 46.404 6 0 1@4c4f4518"/>
  <path d="M 218.722 43.23 L 254.332 66.432 L 254.332 112.836 L 218.722 136.038 L 183.112 112.836 L 183.112 66.432 Z" style="fill: rgb(216, 216, 216); stroke: rgb(0, 0, 0);" transform="matrix(0.024755, 0.999694, -1.000075, 0.009348, 329.05073, 100.564487)" bx:shape="n-gon 218.722 89.634 41.119 46.404 6 0 1@4c4f4518"/>
  <path d="M 218.722 43.23 L 254.332 66.432 L 254.332 112.836 L 218.722 136.038 L 183.112 112.836 L 183.112 66.432 Z" style="fill: rgb(216, 216, 216); stroke: rgb(0, 0, 0);" transform="matrix(0.024755, 0.999694, -1.000075, 0.009348, 329.950785, 174.67185)" bx:shape="n-gon 218.722 89.634 41.119 46.404 6 0 1@4c4f4518"/>
  <path d="M 218.722 49.984 L 249.149 69.809 L 249.149 109.459 L 218.722 129.284 L 188.295 109.459 L 188.295 69.809 Z" style="stroke: rgb(0, 0, 0); fill: rgb(22, 45, 148);" transform="matrix(0.024755, 0.999694, -1.000075, 0.009348, 325.26359, -122.495312)" bx:shape="n-gon 218.722 89.634 35.134 39.65 6 0 1@4640d286"/>
  <path d="M 218.722 49.984 L 249.149 69.809 L 249.149 109.459 L 218.722 129.284 L 188.295 109.459 L 188.295 69.809 Z" style="stroke: rgb(0, 0, 0); fill: rgb(22, 45, 148);" transform="matrix(0.024755, 0.999694, -1.000075, 0.009348, 326.800516, -48.100683)" bx:shape="n-gon 218.722 89.634 35.134 39.65 6 0 1@4640d286"/>
  <path d="M 218.722 49.984 L 249.149 69.809 L 249.149 109.459 L 218.722 129.284 L 188.295 109.459 L 188.295 69.809 Z" style="stroke: rgb(0, 0, 0); fill: rgb(22, 45, 148);" transform="matrix(0.024755, 0.999694, -1.000075, 0.009348, 327.700571, 26.606885)" bx:shape="n-gon 218.722 89.634 35.134 39.65 6 0 1@4640d286"/>
  <path d="M 218.722 49.984 L 249.149 69.809 L 249.149 109.459 L 218.722 129.284 L 188.295 109.459 L 188.295 69.809 Z" style="stroke: rgb(0, 0, 0); fill: rgb(22, 45, 148);" transform="matrix(0.024755, 0.999694, -1.000075, 0.009348, 329.950785, 100.864505)" bx:shape="n-gon 218.722 89.634 35.134 39.65 6 0 1@4640d286"/>
  <path d="M 218.722 49.984 L 249.149 69.809 L 249.149 109.459 L 218.722 129.284 L 188.295 109.459 L 188.295 69.809 Z" style="stroke: rgb(0, 0, 0); fill: rgb(22, 45, 148);" transform="matrix(0.024755, 0.999694, -1.000075, 0.009348, 329.950815, 175.572042)" bx:shape="n-gon 218.722 89.634 35.134 39.65 6 0 1@4640d286"/>
  <text style="fill: rgb(134, 134, 134); font-family: &quot;Bernard MT&quot;; font-size: 18.9px; white-space: pre;" transform="matrix(2.541135, 0, 0, 1.978724, -345.855723, 226.888053)" x="228.173" y="92.334">0</text>
  <text style="fill: rgb(134, 134, 134); font-family: &quot;Bernard MT&quot;; font-size: 18.9px; white-space: pre;" transform="matrix(2.541135, 0, 0, 1.978724, -341.147898, 151.203053)" x="228.173" y="92.334">1</text>
  <text style="fill: rgb(134, 134, 134); font-family: &quot;Bernard MT&quot;; font-size: 18.9px; white-space: pre;" transform="matrix(2.541135, 0, 0, 1.978724, -348.952189, 76.573061)" x="228.173" y="92.334">2</text>
  <text style="fill: rgb(134, 134, 134); font-family: &quot;Bernard MT&quot;; font-size: 18.9px; white-space: pre;" transform="matrix(2.541135, 0, 0, 1.978724, -349.005961, 3.215738)" x="228.173" y="92.334">3</text>
  <text style="fill: rgb(134, 134, 134); font-family: &quot;Bernard MT&quot;; font-size: 18.9px; white-space: pre;" transform="matrix(2.541135, 0, 0, 1.978724, -351.706218, -73.291895)" x="228.173" y="92.334">4</text>
</svg>